# xmcd
# 
# Track frame offsets:
#     150
#     14290
#     28312
#     43964
#     60935
#     77614
#     93809
#     110237
#     126369
#     140589
#     156520
#     172601
# 
# Disc length: 2518
# 
# Revision: 1
# Processed by: cddbd v1.5.2PL0 Copyright (c) Steve Scherf et al.
# Submitted via: fre:ac v1.0.31
# 
DISCID=9c09d40c
DTITLE=Brett Young - Brett Young
DYEAR=2017
DGENRE=Country
TTITLE0=Sleep Without You
TTITLE1=Close Enough
TTITLE2=Like I Loved You
TTITLE3=In Case You Didn't Know
TTITLE4=Olivia Mae
TTITLE5=Left Side Of Leavin'
TTITLE6=You Ain't Here To Kiss Me
TTITLE7=Back On The Wagon
TTITLE8=Makin' Me Say
TTITLE9=Memory Won't Let Me
TTITLE10=Beautiful Believer
TTITLE11=Mercy
EXTD=
EXTT0=
EXTT1=
EXTT2=
EXTT3=
EXTT4=
EXTT5=
EXTT6=
EXTT7=
EXTT8=
EXTT9=
EXTT10=
EXTT11=
PLAYORDER=
